<svg width="38.000000" height="37.050659" viewBox="0 0 38 37.0507" fill="none" xmlns="http://www.w3.org/2000/svg" xmlns:xlink="http://www.w3.org/1999/xlink">
	<desc>
			Created with Pixso.
	</desc>
	<defs/>
	<path d="M12.71 29.833C12.71 29.9863 12.5337 30.1089 12.3115 30.1089C12.0591 30.1318 11.8828 30.0093 11.8828 29.833C11.8828 29.6798 12.0591 29.5573 12.2812 29.5573C12.5107 29.5343 12.71 29.6569 12.71 29.833ZM10.3276 29.4883C10.2739 29.6415 10.4272 29.8177 10.6567 29.8638C10.856 29.9403 11.0859 29.8638 11.1318 29.7104C11.1777 29.5573 11.0322 29.3811 10.8022 29.3121C10.603 29.2584 10.3809 29.3351 10.3276 29.4883ZM13.7139 29.358C13.4917 29.4117 13.3384 29.5573 13.3613 29.7335C13.3843 29.8867 13.5835 29.9863 13.8135 29.9326C14.0356 29.879 14.1885 29.7335 14.1655 29.5802C14.1426 29.4347 13.936 29.3351 13.7139 29.358ZM18.7549 0C8.12842 0 0 8.06738 0 18.6936C0 27.1899 5.34766 34.4604 12.9858 37.0194C13.9663 37.1956 14.3115 36.5903 14.3115 36.0923C14.3115 35.6173 14.2881 32.9972 14.2881 31.3883C14.2881 31.3883 8.92529 32.5375 7.79932 29.1052C7.79932 29.1052 6.92578 26.8759 5.66943 26.3013C5.66943 26.3013 3.91504 25.0984 5.79199 25.1213C5.79199 25.1213 7.69971 25.2747 8.74902 27.098C10.4272 30.0553 13.2388 29.2048 14.3345 28.6992C14.5103 27.4734 15.0083 26.623 15.5601 26.1173C11.2773 25.6423 6.95654 25.0217 6.95654 17.6516C6.95654 15.5448 7.53857 14.4875 8.76465 13.1392C8.56543 12.6411 7.91406 10.5879 8.96387 7.93713C10.5649 7.43909 14.25 10.0056 14.25 10.0056C15.7822 9.57666 17.4292 9.35449 19.0615 9.35449C20.6934 9.35449 22.3403 9.57666 23.8726 10.0056C23.8726 10.0056 27.5576 7.4314 29.1587 7.93713C30.2085 10.5956 29.5571 12.6411 29.3579 13.1392C30.584 14.4951 31.3345 15.5524 31.3345 17.6516C31.3345 25.0448 26.8223 25.6346 22.5396 26.1173C23.2441 26.7225 23.8418 27.8718 23.8418 29.6721C23.8418 32.254 23.8188 35.4487 23.8188 36.077C23.8188 36.575 24.1714 37.1803 25.1445 37.004C32.8057 34.4604 38 27.1899 38 18.6936C38 8.06738 29.3809 0 18.7549 0ZM7.44678 26.4238C7.34717 26.5004 7.37012 26.6766 7.50049 26.8221C7.62305 26.9447 7.79932 26.9984 7.89893 26.8988C7.99854 26.8221 7.97559 26.646 7.84521 26.5004C7.72266 26.3778 7.54639 26.3242 7.44678 26.4238ZM6.61914 25.8032C6.56592 25.9028 6.64258 26.0254 6.79541 26.1021C6.91797 26.1786 7.07129 26.1556 7.125 26.0483C7.17871 25.9487 7.10205 25.8262 6.94873 25.7496C6.79541 25.7036 6.67285 25.7266 6.61914 25.8032ZM9.10156 28.5306C8.979 28.6302 9.0249 28.8601 9.20117 29.0056C9.37744 29.1819 9.59961 29.2048 9.69922 29.0823C9.79883 28.9827 9.75293 28.7528 9.59961 28.6073C9.43115 28.431 9.20117 28.4081 9.10156 28.5306ZM8.22803 27.4044C8.10547 27.4811 8.10547 27.6803 8.22803 27.8564C8.35059 28.0327 8.55762 28.1093 8.65723 28.0327C8.77979 27.9331 8.77979 27.7339 8.65723 27.5576C8.5498 27.3815 8.35059 27.3048 8.22803 27.4044Z" fill="#FFFFFF" fill-opacity="1.000000" fill-rule="nonzero"/>
</svg>
