<svg width="38.000000" height="37.991455" viewBox="0 0 38 37.9915" fill="none" xmlns="http://www.w3.org/2000/svg" xmlns:xlink="http://www.w3.org/1999/xlink">
	<desc>
			Created with Pixso.
	</desc>
	<defs/>
	<path id="Vector" d="M19.0044 9.25525C13.6128 9.25525 9.26367 13.6041 9.26367 18.9957C9.26367 24.3875 13.6128 28.7363 19.0044 28.7363C24.396 28.7363 28.7446 24.3875 28.7446 18.9957C28.7446 13.6041 24.396 9.25525 19.0044 9.25525ZM19.0044 25.3284C15.52 25.3284 12.6714 22.4884 12.6714 18.9957C12.6714 15.5031 15.5117 12.6631 19.0044 12.6631C22.4971 12.6631 25.3369 15.5031 25.3369 18.9957C25.3369 22.4884 22.4883 25.3284 19.0044 25.3284ZM31.415 8.85681C31.415 10.1199 30.3979 11.1288 29.1431 11.1288C27.8799 11.1288 26.8711 10.1115 26.8711 8.85681C26.8711 7.60217 27.8887 6.58484 29.1431 6.58484C30.3979 6.58484 31.415 7.60217 31.415 8.85681ZM37.8667 11.1626C37.7222 8.11926 37.0273 5.42346 34.7979 3.20239C32.5767 0.981201 29.8809 0.286133 26.8374 0.133545C23.7007 -0.0445557 14.2993 -0.0445557 11.1626 0.133545C8.12793 0.277588 5.43213 0.972778 3.20215 3.19385C0.972656 5.41492 0.286133 8.11072 0.133301 11.1542C-0.0444336 14.2908 -0.0444336 23.6923 0.133301 26.8289C0.277832 29.8723 0.972656 32.5681 3.20215 34.7892C5.43213 37.0103 8.11914 37.7054 11.1626 37.858C14.2993 38.036 23.7007 38.036 26.8374 37.858C29.8809 37.7139 32.5767 37.0188 34.7979 34.7892C37.0186 32.5681 37.7139 29.8723 37.8667 26.8289C38.0444 23.6923 38.0444 14.2993 37.8667 11.1626ZM33.8145 30.1945C33.1528 31.856 31.873 33.1361 30.2031 33.8058C27.7021 34.7976 21.7681 34.5687 19.0044 34.5687C16.2407 34.5687 10.2979 34.7892 7.80566 33.8058C6.14404 33.1445 4.86377 31.8645 4.19434 30.1945C3.20215 27.6936 3.43115 21.7594 3.43115 18.9957C3.43115 16.2322 3.21094 10.2894 4.19434 7.79712C4.85547 6.1355 6.13574 4.85547 7.80566 4.18567C10.3066 3.19385 16.2407 3.42273 19.0044 3.42273C21.7681 3.42273 27.7104 3.20239 30.2031 4.18567C31.8643 4.84692 33.1445 6.12708 33.8145 7.79712C34.8062 10.298 34.5771 16.2322 34.5771 18.9957C34.5771 21.7594 34.8062 27.702 33.8145 30.1945Z" fill="#FFFFFF" fill-opacity="1.000000" fill-rule="nonzero"/>
</svg>
