<svg width="38.000000" height="38.000000" viewBox="0 0 38 38" fill="none" xmlns="http://www.w3.org/2000/svg" xmlns:xlink="http://www.w3.org/1999/xlink">
	<desc>
			Created with Pixso.
	</desc>
	<defs/>
	<path d="M35.2856 0L2.70557 0C1.21289 0 0 1.22986 0 2.73975L0 35.2603C0 36.7701 1.21289 38 2.70557 38L35.2856 38C36.7788 38 38 36.7701 38 35.2603L38 2.73975C38 1.22986 36.7788 0 35.2856 0ZM11.4849 32.5714L5.85254 32.5714L5.85254 14.4366L11.4932 14.4366L11.4932 32.5714L11.4849 32.5714ZM8.66895 11.9598C6.86182 11.9598 5.40332 10.4924 5.40332 8.69421C5.40332 6.896 6.86182 5.42859 8.66895 5.42859C10.4668 5.42859 11.9346 6.896 11.9346 8.69421C11.9346 10.5009 10.4756 11.9598 8.66895 11.9598ZM32.5967 32.5714L26.9648 32.5714L26.9648 23.75C26.9648 21.6465 26.9224 18.9407 24.0386 18.9407C21.1035 18.9407 20.6538 21.2308 20.6538 23.5973L20.6538 32.5714L15.022 32.5714L15.022 14.4366L20.4248 14.4366L20.4248 16.9135L20.5015 16.9135C21.2563 15.4884 23.0967 13.9871 25.8364 13.9871C31.5366 13.9871 32.5967 17.7446 32.5967 22.6304L32.5967 32.5714Z" fill="#FFFFFF" fill-opacity="1.000000" fill-rule="nonzero"/>
</svg>
