<svg width="38.000000" height="30.863037" viewBox="0 0 38 30.863" fill="none" xmlns="http://www.w3.org/2000/svg" xmlns:xlink="http://www.w3.org/1999/xlink">
	<desc>
			Created with Pixso.
	</desc>
	<defs/>
	<path d="M34.0942 7.69165C34.1182 8.02917 34.1182 8.36682 34.1182 8.70435C34.1182 19 26.2817 30.863 11.9595 30.863C7.54688 30.863 3.44775 29.5851 0 27.3668C0.626953 27.4392 1.22949 27.4633 1.88086 27.4633C5.52148 27.4633 8.87305 26.2336 11.5493 24.1359C8.12549 24.0635 5.25635 21.8212 4.26758 18.7349C4.75 18.8071 5.23242 18.8553 5.73877 18.8553C6.43799 18.8553 7.13721 18.7589 7.78809 18.5902C4.21973 17.8667 1.54297 14.7323 1.54297 10.9468L1.54297 10.8503C2.58008 11.429 3.78564 11.7906 5.06348 11.8389C2.96582 10.4403 1.59131 8.05334 1.59131 5.35278C1.59131 3.90613 1.97705 2.57996 2.65234 1.42261C6.48584 6.14844 12.2485 9.23474 18.7104 9.57239C18.5903 8.99365 18.5176 8.39087 18.5176 7.78809C18.5176 3.49622 21.9897 0 26.3057 0C28.5483 0 30.5737 0.940308 31.9961 2.45935C33.7563 2.12183 35.4443 1.47083 36.939 0.578735C36.3604 2.38708 35.1309 3.90613 33.5151 4.87061C35.0825 4.7019 36.6016 4.2677 38 3.66504C36.9395 5.20813 35.6133 6.5824 34.0942 7.69165Z" fill="#FFFFFF" fill-opacity="1.000000" fill-rule="nonzero"/>
</svg>
