<svg width="38.000000" height="22.573853" viewBox="0 0 38 22.5739" fill="none" xmlns="http://www.w3.org/2000/svg" xmlns:xlink="http://www.w3.org/1999/xlink">
	<desc>
			Created with Pixso.
	</desc>
	<defs/>
	<path id="Vector" d="M37.1338 1.53076C37.395 0.649048 37.1338 0 35.8784 0L31.7231 0C30.665 0 30.1782 0.557251 29.9175 1.1781C29.9175 1.1781 27.8013 6.33484 24.8101 9.67859C23.8438 10.645 23.3994 10.9553 22.8701 10.9553C22.6089 10.9553 22.207 10.645 22.207 9.76318L22.207 1.53076C22.207 0.472656 21.9106 0 21.0361 0L14.5039 0C13.8408 0 13.4453 0.493774 13.4453 0.952393C13.4453 1.9541 14.9409 2.18689 15.0962 5.00854L15.0962 11.1317C15.0962 12.472 14.8564 12.719 14.3271 12.719C12.9165 12.719 9.48828 7.54102 7.45654 1.61548C7.04736 0.465576 6.64502 0 5.58008 0L1.4248 0C0.239746 0 0 0.557251 0 1.1781C0 2.27856 1.41064 7.74561 6.56738 14.9692C10.0029 19.9003 14.8423 22.5739 19.2441 22.5739C21.8896 22.5739 22.2139 21.9813 22.2139 20.9584C22.2139 16.2461 21.9741 15.8016 23.3003 15.8016C23.9141 15.8016 24.9722 16.1121 27.4414 18.4894C30.2632 21.3112 30.7285 22.5739 32.3086 22.5739L36.4639 22.5739C37.6489 22.5739 38.2485 21.9813 37.9028 20.8103C37.1128 18.3483 31.7725 13.2833 31.5327 12.9447C30.9189 12.1545 31.0952 11.8019 31.5327 11.0964C31.54 11.0894 36.6118 3.95044 37.1338 1.53076Z" fill="#FFFFFF" fill-opacity="1.000000" fill-rule="nonzero"/>
</svg>
